<?xml version="1.0" encoding="UTF-8" standalone="no"?>
<!DOCTYPE svg PUBLIC "-//W3C//DTD SVG 1.1//EN" "http://www.w3.org/Graphics/SVG/1.1/DTD/svg11.dtd">
<svg xmlns="http://www.w3.org/2000/svg" version="1.1" viewBox="0.00 0.00 640.00 640.00">
<g stroke-width="2.00" fill="none" stroke-linecap="butt">
<path stroke="#8c8c8f" vector-effect="non-scaling-stroke" d="
  M 511.24 362.14
  L 510.75 362.25
  Q 510.49 362.31 510.75 362.37
  Q 534.60 367.91 558.03 374.98
  Q 566.68 377.60 576.98 381.36
  Q 591.13 386.54 605.26 391.82
  C 607.70 392.73 610.36 394.45 613.16 395.39
  C 618.68 397.24 623.30 399.79 628.76 401.33
  Q 629.31 401.49 629.30 400.91
  Q 629.28 399.35 627.86 398.62
  C 621.90 395.55 616.06 391.45 611.46 388.64
  Q 596.14 379.26 579.61 372.17
  Q 577.14 371.11 574.52 368.55
  Q 574.15 368.20 574.16 367.69
  Q 574.68 305.84 574.39 243.99
  C 574.37 239.58 574.66 237.02 571.38 234.64
  Q 506.78 188.01 442.29 141.22
  C 439.39 139.11 438.87 141.41 437.06 142.70
  Q 405.57 165.24 374.34 188.15
  Q 374.04 188.37 373.64 188.08
  L 309.28 141.46
  A 3.43 3.42 -44.9 0 0 305.27 141.46
  Q 274.82 163.44 244.95 185.21
  C 242.73 186.82 240.68 187.32 238.24 185.55
  Q 207.81 163.47 177.67 141.54
  A 3.94 3.93 -45.1 0 0 173.03 141.55
  Q 109.44 188.00 45.25 234.25
  Q 41.69 236.82 41.69 241.00
  Q 41.77 309.11 41.76 377.23
  C 41.76 380.71 36.86 383.15 34.19 384.59
  C 25.81 389.10 17.98 394.39 9.69 399.07
  Q 9.02 399.45 8.84 399.94
  Q 8.57 400.65 8.96 401.26
  A 0.80 0.80 0.0 0 0 9.92 401.56
  Q 20.28 397.37 30.62 392.81
  C 40.22 388.57 50.28 385.41 60.09 381.74
  Q 68.87 378.45 82.27 374.50
  Q 114.92 364.86 140.76 358.75
  Q 148.88 356.83 160.38 354.87
  C 174.82 352.41 189.79 349.24 203.67 347.41
  Q 288.80 336.19 376.00 341.70
  Q 406.24 343.61 433.61 347.32
  Q 441.64 348.40 453.35 350.48
  C 467.87 353.06 482.57 355.14 496.88 358.73
  Q 504.03 360.52 511.24 362.04
  Q 511.45 362.09 511.24 362.14"
/>
<path stroke="#808080" vector-effect="non-scaling-stroke" d="
  M 200.40 428.01
  Q 199.96 424.91 200.02 420.50
  Q 200.17 410.00 200.26 399.50
  C 200.30 395.22 196.23 395.52 193.22 395.79
  A 2.24 2.24 0.0 0 0 191.19 398.02
  L 191.21 433.46
  Q 191.21 434.70 192.45 434.71
  Q 202.33 434.79 212.00 434.75
  C 215.10 434.74 215.12 431.78 214.13 429.71
  A 1.22 1.22 0.0 0 0 213.50 429.11
  C 208.91 427.23 205.49 429.10 201.12 428.69
  Q 200.49 428.63 200.40 428.01"
/>
<path stroke="#808080" vector-effect="non-scaling-stroke" d="
  M 63.28 397.74
  L 63.40 432.72
  A 1.94 1.94 0.0 0 0 65.35 434.65
  L 78.69 434.60
  A 18.14 18.11 -0.2 0 0 96.76 416.43
  L 96.76 413.79
  A 18.14 18.11 -0.2 0 0 78.55 395.75
  L 65.21 395.79
  A 1.94 1.94 0.0 0 0 63.28 397.74"
/>
<path stroke="#808080" vector-effect="non-scaling-stroke" d="
  M 124.82 419.99
  C 124.67 429.54 111.51 428.87 111.51 420.74
  Q 111.51 409.55 111.48 398.30
  A 2.45 2.45 0.0 0 0 109.10 395.85
  L 104.40 395.71
  A 1.60 1.59 -88.8 0 0 102.76 397.29
  Q 102.64 407.73 102.66 418.42
  C 102.68 430.64 110.90 437.24 122.98 434.29
  C 130.32 432.49 133.76 427.74 133.89 420.24
  Q 134.11 407.09 133.92 399.25
  Q 133.88 397.61 132.52 396.27
  Q 132.07 395.84 131.45 395.82
  L 127.25 395.68
  A 2.18 2.18 0.0 0 0 125.00 397.86
  Q 124.98 409.05 124.82 419.99"
/>
<path stroke="#808080" vector-effect="non-scaling-stroke" d="
  M 226.90 403.63
  Q 226.64 400.80 227.05 398.48
  A 1.87 1.87 0.0 0 0 225.18 396.29
  L 219.58 396.41
  A 0.83 0.83 0.0 0 0 218.77 397.21
  Q 218.28 409.27 218.72 421.25
  C 219.42 439.89 249.42 439.21 249.66 420.48
  Q 249.79 409.85 250.11 399.22
  C 250.23 395.44 245.60 395.99 243.22 395.86
  A 2.05 2.04 1.9 0 0 241.05 397.89
  Q 240.98 409.44 240.89 421.25
  C 240.84 427.36 231.62 428.92 228.51 424.23
  Q 227.22 422.27 227.29 420.76
  Q 227.67 412.17 226.90 403.63"
/>
<path stroke="#808080" vector-effect="non-scaling-stroke" d="
  M 279.72 427.43
  L 282.88 433.75
  A 1.22 1.21 -2.6 0 0 283.53 434.34
  Q 286.74 435.62 290.09 434.60
  A 1.74 1.74 0.0 0 0 291.22 432.35
  L 278.71 397.51
  A 1.36 1.35 -0.3 0 0 277.86 396.68
  Q 276.16 396.12 273.22 395.86
  C 268.45 395.45 267.12 397.21 265.50 401.55
  Q 259.64 417.24 253.57 432.57
  A 1.35 1.34 -72.0 0 0 254.48 434.36
  C 261.05 436.04 262.75 433.98 265.27 428.49
  A 2.91 2.91 0.0 0 1 267.82 426.79
  L 278.07 426.45
  A 1.78 1.77 -14.3 0 1 279.72 427.43"
/>
<path stroke="#808080" vector-effect="non-scaling-stroke" d="
  M 484.39 403.02
  Q 486.19 403.22 486.03 404.71
  Q 485.86 406.25 485.87 406.37
  Q 486.50 419.77 485.59 433.26
  A 0.72 0.71 9.3 0 0 486.13 434.00
  Q 489.82 434.94 493.65 434.39
  A 1.47 1.47 0.0 0 0 494.91 432.92
  L 494.63 404.85
  A 2.03 2.02 -0.6 0 1 496.65 402.80
  L 503.29 402.75
  A 1.10 1.10 0.0 0 0 504.13 402.36
  C 506.48 399.59 506.11 395.64 501.47 395.85
  Q 490.87 396.34 480.25 396.18
  Q 478.12 396.15 476.47 397.12
  Q 476.03 397.38 475.93 397.88
  C 474.88 403.12 481.12 402.65 484.39 403.02"
/>
<path stroke="#808080" vector-effect="non-scaling-stroke" d="
  M 511.04 397.58
  L 510.80 432.82
  A 1.82 1.82 0.0 0 0 512.60 434.65
  L 526.24 434.75
  A 19.02 18.17 0.4 0 0 545.39 416.71
  L 545.41 414.17
  A 19.02 18.17 0.4 0 0 526.52 395.87
  L 512.88 395.77
  A 1.82 1.82 0.0 0 0 511.04 397.58"
/>
<path stroke="#808080" vector-effect="non-scaling-stroke" d="
  M 166.47 421.42
  C 174.61 420.48 183.14 420.16 185.29 411.00
  Q 186.68 405.05 182.76 400.05
  C 180.76 397.49 178.13 396.59 175.00 396.32
  Q 166.50 395.60 158.33 396.48
  A 1.35 1.34 85.8 0 0 157.14 397.86
  Q 157.68 414.93 156.87 432.24
  Q 156.77 434.49 158.75 434.66
  Q 161.99 434.94 164.53 434.39
  A 2.46 2.45 -8.5 0 0 166.45 431.80
  L 165.73 422.31
  A 0.84 0.83 -5.4 0 1 166.47 421.42"
/>
<path stroke="#808080" vector-effect="non-scaling-stroke" d="
  M 305.81 418.77
  C 311.76 421.75 312.22 431.21 317.79 433.96
  Q 321.21 435.65 326.27 434.30
  Q 328.30 433.76 327.01 432.11
  L 314.53 416.10
  A 2.23 2.21 -45.4 0 1 314.52 413.38
  L 325.44 399.19
  A 1.84 1.84 0.0 0 0 324.55 396.32
  C 320.59 395.03 316.60 396.01 314.34 399.78
  C 312.58 402.72 308.97 410.64 305.77 411.70
  A 0.73 0.72 -11.3 0 1 304.82 411.07
  Q 304.33 404.76 305.47 398.54
  A 2.11 2.11 0.0 0 0 303.40 396.05
  L 297.82 396.04
  A 1.56 1.56 0.0 0 0 296.25 397.60
  L 296.25 432.81
  A 0.92 0.92 0.0 0 0 296.77 433.64
  Q 300.30 435.39 304.25 434.64
  A 1.35 1.35 0.0 0 0 305.35 433.22
  L 304.42 419.70
  A 0.97 0.96 -78.7 0 1 305.81 418.77"
/>
<path stroke="#808080" vector-effect="non-scaling-stroke" d="
  M 355.16 410.57
  C 359.77 401.22 366.15 404.85 374.06 405.29
  A 0.78 0.78 0.0 0 0 374.89 404.50
  L 374.77 398.14
  A 0.80 0.78 -76.0 0 0 374.38 397.47
  C 371.58 395.85 369.40 396.03 365.50 396.04
  C 352.17 396.06 343.97 405.82 345.10 418.82
  Q 345.58 424.38 348.90 428.39
  C 354.32 434.95 360.46 435.13 368.91 434.55
  C 373.67 434.23 376.79 430.43 374.73 425.56
  A 0.66 0.65 75.5 0 0 374.06 425.16
  C 370.99 425.44 367.94 427.11 365.42 427.15
  C 356.87 427.28 351.28 418.43 355.16 410.57"
/>
<path stroke="#808080" vector-effect="non-scaling-stroke" d="
  M 394.6972 434.8067
  A 19.61 18.98 99.4 0 0 416.6251 418.5599
  A 19.61 18.98 99.4 0 0 401.1028 396.1133
  A 19.61 18.98 99.4 0 0 379.1749 412.3601
  A 19.61 18.98 99.4 0 0 394.6972 434.8067"
/>
<path stroke="#808080" vector-effect="non-scaling-stroke" d="
  M 460.16 427.59
  A 2.49 2.18 -65.4 0 1 459.76 426.25
  L 459.66 397.83
  Q 459.65 396.00 457.83 396.04
  L 452.33 396.15
  A 1.29 1.29 0.0 0 0 451.06 397.43
  L 450.82 433.08
  Q 450.81 434.72 452.45 434.73
  Q 462.82 434.74 472.18 434.29
  C 475.94 434.11 475.46 429.12 472.71 428.87
  Q 466.99 428.35 461.26 428.09
  Q 460.48 428.05 460.16 427.59"
/>
<path stroke="#808080" vector-effect="non-scaling-stroke" d="
  M 559.4787 429.7402
  A 5.42 4.62 -3.7 0 0 553.7719 425.4796
  A 5.42 4.62 -3.7 0 0 548.6613 430.4398
  A 5.42 4.62 -3.7 0 0 554.3681 434.7004
  A 5.42 4.62 -3.7 0 0 559.4787 429.7402"
/>
<path stroke="#808080" vector-effect="non-scaling-stroke" d="
  M 429.9724 427.7162
  A 5.29 4.49 -26.3 0 0 423.2406 426.0348
  A 5.29 4.49 -26.3 0 0 420.4876 432.4038
  A 5.29 4.49 -26.3 0 0 427.2194 434.0852
  A 5.29 4.49 -26.3 0 0 429.9724 427.7162"
/>
<path stroke="#808080" vector-effect="non-scaling-stroke" d="
  M 442.10 427.16
  L 438.33 425.94
  A 1.78 1.78 0.0 0 0 436.09 427.09
  L 434.62 431.63
  A 9.27 3.34 -72.1 0 0 434.95 441.48
  L 435.75 441.74
  A 9.27 3.34 -72.1 0 0 441.78 433.94
  L 443.24 429.40
  A 1.78 1.78 0.0 0 0 442.10 427.16"
/>
<path stroke="#8c8c8f" vector-effect="non-scaling-stroke" d="
  M 458.16 329.22
  Q 457.13 329.31 456.13 329.35
  Q 456.12 329.35 456.12 329.36
  Q 456.12 329.36 456.12 329.37
  Q 456.12 329.39 456.14 329.39
  C 458.74 329.17 460.99 330.41 462.82 330.86
  Q 469.44 332.50 475.81 334.92
  C 478.71 336.02 481.76 336.74 484.71 337.75
  Q 486.93 338.51 491.42 339.52
  Q 493.88 340.08 496.21 341.02
  Q 498.90 342.10 500.95 342.48
  Q 514.47 345.01 527.80 349.68
  A 1.18 1.18 0.0 0 0 529.37 348.56
  L 529.30 261.01
  A 2.91 2.91 0.0 0 0 528.09 258.65
  L 440.61 195.21
  Q 440.26 194.96 439.94 195.23
  Q 427.08 205.78 413.08 214.71
  Q 411.92 215.45 412.78 216.52
  Q 413.71 217.67 415.62 218.92
  Q 425.81 225.61 435.59 232.89
  C 438.40 234.97 440.87 236.65 440.96 239.49
  Q 441.32 250.15 441.27 253.50
  Q 440.60 300.29 441.51 325.25
  C 441.60 327.66 444.49 327.30 445.87 327.52
  Q 451.99 328.49 458.16 329.18
  Q 458.36 329.21 458.16 329.22"
/>
<path stroke="#8c8c8f" vector-effect="non-scaling-stroke" d="
  M 331.28 212.73
  Q 319.45 204.18 308.54 195.91
  Q 307.44 195.08 306.33 195.89
  Q 263.77 226.67 223.27 256.04
  Q 220.23 258.24 218.81 259.77
  A 1.29 1.28 -23.9 0 0 218.47 260.64
  L 218.47 321.28
  A 1.15 1.14 84.6 0 0 219.83 322.41
  C 234.10 319.66 248.83 318.65 263.31 317.09
  Q 274.09 315.94 283.23 315.50
  C 322.61 313.64 357.41 314.47 394.19 319.18
  A 1.59 1.58 3.7 0 0 395.98 317.61
  Q 396.02 289.88 395.99 263.25
  Q 395.99 259.49 392.09 256.67
  Q 361.68 234.71 331.28 212.73"
/>
<path stroke="#8c8c8f" vector-effect="non-scaling-stroke" d="
  M 173.14 329.06
  Q 173.26 286.82 173.07 246.75
  C 173.04 239.88 172.64 237.59 178.37 233.38
  Q 190.02 224.81 201.98 216.40
  A 1.25 1.25 0.0 0 0 202.00 214.37
  L 177.44 196.56
  A 3.33 3.32 44.9 0 0 173.53 196.56
  L 87.34 258.97
  Q 86.45 259.61 86.46 260.70
  Q 86.57 305.65 86.51 351.00
  Q 86.50 354.15 86.10 356.91
  A 1.16 1.16 0.0 0 0 87.50 358.22
  C 88.96 357.91 90.71 357.64 92.12 357.06
  C 108.70 350.18 125.61 344.93 142.58 339.18
  C 151.69 336.09 161.55 334.16 170.64 332.16
  Q 173.13 331.61 173.14 329.06"
/>
<path stroke="#808080" vector-effect="non-scaling-stroke" d="
  M 71.99 404.57
  L 71.46 426.20
  A 2.16 2.16 0.0 0 0 73.56 428.41
  L 75.56 428.46
  A 11.90 11.30 1.4 0 0 87.74 417.46
  L 87.82 414.10
  A 11.90 11.30 1.4 0 0 76.20 402.51
  L 74.20 402.46
  A 2.16 2.16 0.0 0 0 71.99 404.57"
/>
<path stroke="#808080" vector-effect="non-scaling-stroke" d="
  M 277.42 418.51
  A 0.79 0.79 0.0 0 0 277.70 417.56
  L 273.35 407.15
  A 0.79 0.79 0.0 0 0 271.89 407.16
  L 267.47 417.99
  A 0.79 0.79 0.0 0 0 268.16 419.08
  L 275.76 419.47
  A 0.79 0.79 0.0 0 0 276.25 419.33
  L 277.42 418.51"
/>
<path stroke="#808080" vector-effect="non-scaling-stroke" d="
  M 519.46 404.42
  L 519.38 426.46
  A 2.19 2.19 0.0 0 0 521.56 428.66
  L 523.86 428.67
  A 11.77 11.21 0.2 0 0 535.67 417.50
  L 535.69 413.50
  A 11.77 11.21 0.2 0 0 523.96 402.25
  L 521.66 402.24
  A 2.19 2.19 0.0 0 0 519.46 404.42"
/>
<path stroke="#808080" vector-effect="non-scaling-stroke" d="
  M 165.66 404.71
  L 165.66 412.31
  A 2.41 2.41 0.0 0 0 168.07 414.72
  L 169.65 414.72
  A 6.87 5.69 -0.0 0 0 176.52 409.03
  L 176.52 407.99
  A 6.87 5.69 0.0 0 0 169.65 402.30
  L 168.07 402.30
  A 2.41 2.41 0.0 0 0 165.66 404.71"
/>
<path stroke="#808080" vector-effect="non-scaling-stroke" d="
  M 407.2002 412.5267
  A 8.45 8.45 0.0 0 0 398.6040 404.2255
  L 396.7443 404.2579
  A 8.45 8.45 0.0 0 0 388.4431 412.8541
  L 388.5398 418.3933
  A 8.45 8.45 0.0 0 0 397.1360 426.6945
  L 398.9957 426.6621
  A 8.45 8.45 0.0 0 0 407.2969 418.0659
  L 407.2002 412.5267"
/>
</g>
<path fill="#ffffff" d="
  M 0.00 0.00
  L 640.00 0.00
  L 640.00 640.00
  L 0.00 640.00
  L 0.00 0.00
  Z
  M 511.24 362.14
  L 510.75 362.25
  Q 510.49 362.31 510.75 362.37
  Q 534.60 367.91 558.03 374.98
  Q 566.68 377.60 576.98 381.36
  Q 591.13 386.54 605.26 391.82
  C 607.70 392.73 610.36 394.45 613.16 395.39
  C 618.68 397.24 623.30 399.79 628.76 401.33
  Q 629.31 401.49 629.30 400.91
  Q 629.28 399.35 627.86 398.62
  C 621.90 395.55 616.06 391.45 611.46 388.64
  Q 596.14 379.26 579.61 372.17
  Q 577.14 371.11 574.52 368.55
  Q 574.15 368.20 574.16 367.69
  Q 574.68 305.84 574.39 243.99
  C 574.37 239.58 574.66 237.02 571.38 234.64
  Q 506.78 188.01 442.29 141.22
  C 439.39 139.11 438.87 141.41 437.06 142.70
  Q 405.57 165.24 374.34 188.15
  Q 374.04 188.37 373.64 188.08
  L 309.28 141.46
  A 3.43 3.42 -44.9 0 0 305.27 141.46
  Q 274.82 163.44 244.95 185.21
  C 242.73 186.82 240.68 187.32 238.24 185.55
  Q 207.81 163.47 177.67 141.54
  A 3.94 3.93 -45.1 0 0 173.03 141.55
  Q 109.44 188.00 45.25 234.25
  Q 41.69 236.82 41.69 241.00
  Q 41.77 309.11 41.76 377.23
  C 41.76 380.71 36.86 383.15 34.19 384.59
  C 25.81 389.10 17.98 394.39 9.69 399.07
  Q 9.02 399.45 8.84 399.94
  Q 8.57 400.65 8.96 401.26
  A 0.80 0.80 0.0 0 0 9.92 401.56
  Q 20.28 397.37 30.62 392.81
  C 40.22 388.57 50.28 385.41 60.09 381.74
  Q 68.87 378.45 82.27 374.50
  Q 114.92 364.86 140.76 358.75
  Q 148.88 356.83 160.38 354.87
  C 174.82 352.41 189.79 349.24 203.67 347.41
  Q 288.80 336.19 376.00 341.70
  Q 406.24 343.61 433.61 347.32
  Q 441.64 348.40 453.35 350.48
  C 467.87 353.06 482.57 355.14 496.88 358.73
  Q 504.03 360.52 511.24 362.04
  Q 511.45 362.09 511.24 362.14
  Z
  M 200.40 428.01
  Q 199.96 424.91 200.02 420.50
  Q 200.17 410.00 200.26 399.50
  C 200.30 395.22 196.23 395.52 193.22 395.79
  A 2.24 2.24 0.0 0 0 191.19 398.02
  L 191.21 433.46
  Q 191.21 434.70 192.45 434.71
  Q 202.33 434.79 212.00 434.75
  C 215.10 434.74 215.12 431.78 214.13 429.71
  A 1.22 1.22 0.0 0 0 213.50 429.11
  C 208.91 427.23 205.49 429.10 201.12 428.69
  Q 200.49 428.63 200.40 428.01
  Z
  M 63.28 397.74
  L 63.40 432.72
  A 1.94 1.94 0.0 0 0 65.35 434.65
  L 78.69 434.60
  A 18.14 18.11 -0.2 0 0 96.76 416.43
  L 96.76 413.79
  A 18.14 18.11 -0.2 0 0 78.55 395.75
  L 65.21 395.79
  A 1.94 1.94 0.0 0 0 63.28 397.74
  Z
  M 124.82 419.99
  C 124.67 429.54 111.51 428.87 111.51 420.74
  Q 111.51 409.55 111.48 398.30
  A 2.45 2.45 0.0 0 0 109.10 395.85
  L 104.40 395.71
  A 1.60 1.59 -88.8 0 0 102.76 397.29
  Q 102.64 407.73 102.66 418.42
  C 102.68 430.64 110.90 437.24 122.98 434.29
  C 130.32 432.49 133.76 427.74 133.89 420.24
  Q 134.11 407.09 133.92 399.25
  Q 133.88 397.61 132.52 396.27
  Q 132.07 395.84 131.45 395.82
  L 127.25 395.68
  A 2.18 2.18 0.0 0 0 125.00 397.86
  Q 124.98 409.05 124.82 419.99
  Z
  M 226.90 403.63
  Q 226.64 400.80 227.05 398.48
  A 1.87 1.87 0.0 0 0 225.18 396.29
  L 219.58 396.41
  A 0.83 0.83 0.0 0 0 218.77 397.21
  Q 218.28 409.27 218.72 421.25
  C 219.42 439.89 249.42 439.21 249.66 420.48
  Q 249.79 409.85 250.11 399.22
  C 250.23 395.44 245.60 395.99 243.22 395.86
  A 2.05 2.04 1.9 0 0 241.05 397.89
  Q 240.98 409.44 240.89 421.25
  C 240.84 427.36 231.62 428.92 228.51 424.23
  Q 227.22 422.27 227.29 420.76
  Q 227.67 412.17 226.90 403.63
  Z
  M 279.72 427.43
  L 282.88 433.75
  A 1.22 1.21 -2.6 0 0 283.53 434.34
  Q 286.74 435.62 290.09 434.60
  A 1.74 1.74 0.0 0 0 291.22 432.35
  L 278.71 397.51
  A 1.36 1.35 -0.3 0 0 277.86 396.68
  Q 276.16 396.12 273.22 395.86
  C 268.45 395.45 267.12 397.21 265.50 401.55
  Q 259.64 417.24 253.57 432.57
  A 1.35 1.34 -72.0 0 0 254.48 434.36
  C 261.05 436.04 262.75 433.98 265.27 428.49
  A 2.91 2.91 0.0 0 1 267.82 426.79
  L 278.07 426.45
  A 1.78 1.77 -14.3 0 1 279.72 427.43
  Z
  M 484.39 403.02
  Q 486.19 403.22 486.03 404.71
  Q 485.86 406.25 485.87 406.37
  Q 486.50 419.77 485.59 433.26
  A 0.72 0.71 9.3 0 0 486.13 434.00
  Q 489.82 434.94 493.65 434.39
  A 1.47 1.47 0.0 0 0 494.91 432.92
  L 494.63 404.85
  A 2.03 2.02 -0.6 0 1 496.65 402.80
  L 503.29 402.75
  A 1.10 1.10 0.0 0 0 504.13 402.36
  C 506.48 399.59 506.11 395.64 501.47 395.85
  Q 490.87 396.34 480.25 396.18
  Q 478.12 396.15 476.47 397.12
  Q 476.03 397.38 475.93 397.88
  C 474.88 403.12 481.12 402.65 484.39 403.02
  Z
  M 511.04 397.58
  L 510.80 432.82
  A 1.82 1.82 0.0 0 0 512.60 434.65
  L 526.24 434.75
  A 19.02 18.17 0.4 0 0 545.39 416.71
  L 545.41 414.17
  A 19.02 18.17 0.4 0 0 526.52 395.87
  L 512.88 395.77
  A 1.82 1.82 0.0 0 0 511.04 397.58
  Z
  M 166.47 421.42
  C 174.61 420.48 183.14 420.16 185.29 411.00
  Q 186.68 405.05 182.76 400.05
  C 180.76 397.49 178.13 396.59 175.00 396.32
  Q 166.50 395.60 158.33 396.48
  A 1.35 1.34 85.8 0 0 157.14 397.86
  Q 157.68 414.93 156.87 432.24
  Q 156.77 434.49 158.75 434.66
  Q 161.99 434.94 164.53 434.39
  A 2.46 2.45 -8.5 0 0 166.45 431.80
  L 165.73 422.31
  A 0.84 0.83 -5.4 0 1 166.47 421.42
  Z
  M 305.81 418.77
  C 311.76 421.75 312.22 431.21 317.79 433.96
  Q 321.21 435.65 326.27 434.30
  Q 328.30 433.76 327.01 432.11
  L 314.53 416.10
  A 2.23 2.21 -45.4 0 1 314.52 413.38
  L 325.44 399.19
  A 1.84 1.84 0.0 0 0 324.55 396.32
  C 320.59 395.03 316.60 396.01 314.34 399.78
  C 312.58 402.72 308.97 410.64 305.77 411.70
  A 0.73 0.72 -11.3 0 1 304.82 411.07
  Q 304.33 404.76 305.47 398.54
  A 2.11 2.11 0.0 0 0 303.40 396.05
  L 297.82 396.04
  A 1.56 1.56 0.0 0 0 296.25 397.60
  L 296.25 432.81
  A 0.92 0.92 0.0 0 0 296.77 433.64
  Q 300.30 435.39 304.25 434.64
  A 1.35 1.35 0.0 0 0 305.35 433.22
  L 304.42 419.70
  A 0.97 0.96 -78.7 0 1 305.81 418.77
  Z
  M 355.16 410.57
  C 359.77 401.22 366.15 404.85 374.06 405.29
  A 0.78 0.78 0.0 0 0 374.89 404.50
  L 374.77 398.14
  A 0.80 0.78 -76.0 0 0 374.38 397.47
  C 371.58 395.85 369.40 396.03 365.50 396.04
  C 352.17 396.06 343.97 405.82 345.10 418.82
  Q 345.58 424.38 348.90 428.39
  C 354.32 434.95 360.46 435.13 368.91 434.55
  C 373.67 434.23 376.79 430.43 374.73 425.56
  A 0.66 0.65 75.5 0 0 374.06 425.16
  C 370.99 425.44 367.94 427.11 365.42 427.15
  C 356.87 427.28 351.28 418.43 355.16 410.57
  Z
  M 394.6972 434.8067
  A 19.61 18.98 99.4 0 0 416.6251 418.5599
  A 19.61 18.98 99.4 0 0 401.1028 396.1133
  A 19.61 18.98 99.4 0 0 379.1749 412.3601
  A 19.61 18.98 99.4 0 0 394.6972 434.8067
  Z
  M 460.16 427.59
  A 2.49 2.18 -65.4 0 1 459.76 426.25
  L 459.66 397.83
  Q 459.65 396.00 457.83 396.04
  L 452.33 396.15
  A 1.29 1.29 0.0 0 0 451.06 397.43
  L 450.82 433.08
  Q 450.81 434.72 452.45 434.73
  Q 462.82 434.74 472.18 434.29
  C 475.94 434.11 475.46 429.12 472.71 428.87
  Q 466.99 428.35 461.26 428.09
  Q 460.48 428.05 460.16 427.59
  Z
  M 559.4787 429.7402
  A 5.42 4.62 -3.7 0 0 553.7719 425.4796
  A 5.42 4.62 -3.7 0 0 548.6613 430.4398
  A 5.42 4.62 -3.7 0 0 554.3681 434.7004
  A 5.42 4.62 -3.7 0 0 559.4787 429.7402
  Z
  M 429.9724 427.7162
  A 5.29 4.49 -26.3 0 0 423.2406 426.0348
  A 5.29 4.49 -26.3 0 0 420.4876 432.4038
  A 5.29 4.49 -26.3 0 0 427.2194 434.0852
  A 5.29 4.49 -26.3 0 0 429.9724 427.7162
  Z
  M 442.10 427.16
  L 438.33 425.94
  A 1.78 1.78 0.0 0 0 436.09 427.09
  L 434.62 431.63
  A 9.27 3.34 -72.1 0 0 434.95 441.48
  L 435.75 441.74
  A 9.27 3.34 -72.1 0 0 441.78 433.94
  L 443.24 429.40
  A 1.78 1.78 0.0 0 0 442.10 427.16
  Z"
/>
<path fill="#18181e" d="
  M 511.24 362.04
  Q 504.03 360.52 496.88 358.73
  C 482.57 355.14 467.87 353.06 453.35 350.48
  Q 441.64 348.40 433.61 347.32
  Q 406.24 343.61 376.00 341.70
  Q 288.80 336.19 203.67 347.41
  C 189.79 349.24 174.82 352.41 160.38 354.87
  Q 148.88 356.83 140.76 358.75
  Q 114.92 364.86 82.27 374.50
  Q 68.87 378.45 60.09 381.74
  C 50.28 385.41 40.22 388.57 30.62 392.81
  Q 20.28 397.37 9.92 401.56
  A 0.80 0.80 0.0 0 1 8.96 401.26
  Q 8.57 400.65 8.84 399.94
  Q 9.02 399.45 9.69 399.07
  C 17.98 394.39 25.81 389.10 34.19 384.59
  C 36.86 383.15 41.76 380.71 41.76 377.23
  Q 41.77 309.11 41.69 241.00
  Q 41.69 236.82 45.25 234.25
  Q 109.44 188.00 173.03 141.55
  A 3.94 3.93 -45.1 0 1 177.67 141.54
  Q 207.81 163.47 238.24 185.55
  C 240.68 187.32 242.73 186.82 244.95 185.21
  Q 274.82 163.44 305.27 141.46
  A 3.43 3.42 -44.9 0 1 309.28 141.46
  L 373.64 188.08
  Q 374.04 188.37 374.34 188.15
  Q 405.57 165.24 437.06 142.70
  C 438.87 141.41 439.39 139.11 442.29 141.22
  Q 506.78 188.01 571.38 234.64
  C 574.66 237.02 574.37 239.58 574.39 243.99
  Q 574.68 305.84 574.16 367.69
  Q 574.15 368.20 574.52 368.55
  Q 577.14 371.11 579.61 372.17
  Q 596.14 379.26 611.46 388.64
  C 616.06 391.45 621.90 395.55 627.86 398.62
  Q 629.28 399.35 629.30 400.91
  Q 629.31 401.49 628.76 401.33
  C 623.30 399.79 618.68 397.24 613.16 395.39
  C 610.36 394.45 607.70 392.73 605.26 391.82
  Q 591.13 386.54 576.98 381.36
  Q 566.68 377.60 558.03 374.98
  Q 534.60 367.91 510.75 362.37
  Q 510.49 362.31 510.75 362.25
  L 511.24 362.14
  Q 511.45 362.09 511.24 362.04
  Z
  M 458.16 329.22
  Q 457.13 329.31 456.13 329.35
  Q 456.12 329.35 456.12 329.36
  Q 456.12 329.36 456.12 329.37
  Q 456.12 329.39 456.14 329.39
  C 458.74 329.17 460.99 330.41 462.82 330.86
  Q 469.44 332.50 475.81 334.92
  C 478.71 336.02 481.76 336.74 484.71 337.75
  Q 486.93 338.51 491.42 339.52
  Q 493.88 340.08 496.21 341.02
  Q 498.90 342.10 500.95 342.48
  Q 514.47 345.01 527.80 349.68
  A 1.18 1.18 0.0 0 0 529.37 348.56
  L 529.30 261.01
  A 2.91 2.91 0.0 0 0 528.09 258.65
  L 440.61 195.21
  Q 440.26 194.96 439.94 195.23
  Q 427.08 205.78 413.08 214.71
  Q 411.92 215.45 412.78 216.52
  Q 413.71 217.67 415.62 218.92
  Q 425.81 225.61 435.59 232.89
  C 438.40 234.97 440.87 236.65 440.96 239.49
  Q 441.32 250.15 441.27 253.50
  Q 440.60 300.29 441.51 325.25
  C 441.60 327.66 444.49 327.30 445.87 327.52
  Q 451.99 328.49 458.16 329.18
  Q 458.36 329.21 458.16 329.22
  Z
  M 331.28 212.73
  Q 319.45 204.18 308.54 195.91
  Q 307.44 195.08 306.33 195.89
  Q 263.77 226.67 223.27 256.04
  Q 220.23 258.24 218.81 259.77
  A 1.29 1.28 -23.9 0 0 218.47 260.64
  L 218.47 321.28
  A 1.15 1.14 84.6 0 0 219.83 322.41
  C 234.10 319.66 248.83 318.65 263.31 317.09
  Q 274.09 315.94 283.23 315.50
  C 322.61 313.64 357.41 314.47 394.19 319.18
  A 1.59 1.58 3.7 0 0 395.98 317.61
  Q 396.02 289.88 395.99 263.25
  Q 395.99 259.49 392.09 256.67
  Q 361.68 234.71 331.28 212.73
  Z
  M 173.14 329.06
  Q 173.26 286.82 173.07 246.75
  C 173.04 239.88 172.64 237.59 178.37 233.38
  Q 190.02 224.81 201.98 216.40
  A 1.25 1.25 0.0 0 0 202.00 214.37
  L 177.44 196.56
  A 3.33 3.32 44.9 0 0 173.53 196.56
  L 87.34 258.97
  Q 86.45 259.61 86.46 260.70
  Q 86.57 305.65 86.51 351.00
  Q 86.50 354.15 86.10 356.91
  A 1.16 1.16 0.0 0 0 87.50 358.22
  C 88.96 357.91 90.71 357.64 92.12 357.06
  C 108.70 350.18 125.61 344.93 142.58 339.18
  C 151.69 336.09 161.55 334.16 170.64 332.16
  Q 173.13 331.61 173.14 329.06
  Z"
/>
<path fill="#ffffff" d="
  M 458.16 329.18
  Q 451.99 328.49 445.87 327.52
  C 444.49 327.30 441.60 327.66 441.51 325.25
  Q 440.60 300.29 441.27 253.50
  Q 441.32 250.15 440.96 239.49
  C 440.87 236.65 438.40 234.97 435.59 232.89
  Q 425.81 225.61 415.62 218.92
  Q 413.71 217.67 412.78 216.52
  Q 411.92 215.45 413.08 214.71
  Q 427.08 205.78 439.94 195.23
  Q 440.26 194.96 440.61 195.21
  L 528.09 258.65
  A 2.91 2.91 0.0 0 1 529.30 261.01
  L 529.37 348.56
  A 1.18 1.18 0.0 0 1 527.80 349.68
  Q 514.47 345.01 500.95 342.48
  Q 498.90 342.10 496.21 341.02
  Q 493.88 340.08 491.42 339.52
  Q 486.93 338.51 484.71 337.75
  C 481.76 336.74 478.71 336.02 475.81 334.92
  Q 469.44 332.50 462.82 330.86
  C 460.99 330.41 458.74 329.17 456.14 329.39
  Q 456.12 329.39 456.12 329.37
  Q 456.12 329.36 456.12 329.36
  Q 456.12 329.35 456.13 329.35
  Q 457.13 329.31 458.16 329.22
  Q 458.36 329.21 458.16 329.18
  Z"
/>
<path fill="#ffffff" d="
  M 331.28 212.73
  Q 361.68 234.71 392.09 256.67
  Q 395.99 259.49 395.99 263.25
  Q 396.02 289.88 395.98 317.61
  A 1.59 1.58 3.7 0 1 394.19 319.18
  C 357.41 314.47 322.61 313.64 283.23 315.50
  Q 274.09 315.94 263.31 317.09
  C 248.83 318.65 234.10 319.66 219.83 322.41
  A 1.15 1.14 84.6 0 1 218.47 321.28
  L 218.47 260.64
  A 1.29 1.28 -23.9 0 1 218.81 259.77
  Q 220.23 258.24 223.27 256.04
  Q 263.77 226.67 306.33 195.89
  Q 307.44 195.08 308.54 195.91
  Q 319.45 204.18 331.28 212.73
  Z"
/>
<path fill="#ffffff" d="
  M 173.14 329.06
  Q 173.13 331.61 170.64 332.16
  C 161.55 334.16 151.69 336.09 142.58 339.18
  C 125.61 344.93 108.70 350.18 92.12 357.06
  C 90.71 357.64 88.96 357.91 87.50 358.22
  A 1.16 1.16 0.0 0 1 86.10 356.91
  Q 86.50 354.15 86.51 351.00
  Q 86.57 305.65 86.46 260.70
  Q 86.45 259.61 87.34 258.97
  L 173.53 196.56
  A 3.33 3.32 44.9 0 1 177.44 196.56
  L 202.00 214.37
  A 1.25 1.25 0.0 0 1 201.98 216.40
  Q 190.02 224.81 178.37 233.38
  C 172.64 237.59 173.04 239.88 173.07 246.75
  Q 173.26 286.82 173.14 329.06
  Z"
/>
<path fill="#010101" d="
  M 201.12 428.69
  C 205.49 429.10 208.91 427.23 213.50 429.11
  A 1.22 1.22 0.0 0 1 214.13 429.71
  C 215.12 431.78 215.10 434.74 212.00 434.75
  Q 202.33 434.79 192.45 434.71
  Q 191.21 434.70 191.21 433.46
  L 191.19 398.02
  A 2.24 2.24 0.0 0 1 193.22 395.79
  C 196.23 395.52 200.30 395.22 200.26 399.50
  Q 200.17 410.00 200.02 420.50
  Q 199.96 424.91 200.40 428.01
  Q 200.49 428.63 201.12 428.69
  Z"
/>
<path fill="#010101" d="
  M 63.28 397.74
  A 1.94 1.94 0.0 0 1 65.21 395.79
  L 78.55 395.75
  A 18.14 18.11 -0.2 0 1 96.76 413.79
  L 96.76 416.43
  A 18.14 18.11 -0.2 0 1 78.69 434.60
  L 65.35 434.65
  A 1.94 1.94 0.0 0 1 63.40 432.72
  L 63.28 397.74
  Z
  M 71.99 404.57
  L 71.46 426.20
  A 2.16 2.16 0.0 0 0 73.56 428.41
  L 75.56 428.46
  A 11.90 11.30 1.4 0 0 87.74 417.46
  L 87.82 414.10
  A 11.90 11.30 1.4 0 0 76.20 402.51
  L 74.20 402.46
  A 2.16 2.16 0.0 0 0 71.99 404.57
  Z"
/>
<path fill="#010101" d="
  M 111.51 420.74
  C 111.51 428.87 124.67 429.54 124.82 419.99
  Q 124.98 409.05 125.00 397.86
  A 2.18 2.18 0.0 0 1 127.25 395.68
  L 131.45 395.82
  Q 132.07 395.84 132.52 396.27
  Q 133.88 397.61 133.92 399.25
  Q 134.11 407.09 133.89 420.24
  C 133.76 427.74 130.32 432.49 122.98 434.29
  C 110.90 437.24 102.68 430.64 102.66 418.42
  Q 102.64 407.73 102.76 397.29
  A 1.60 1.59 -88.8 0 1 104.40 395.71
  L 109.10 395.85
  A 2.45 2.45 0.0 0 1 111.48 398.30
  Q 111.51 409.55 111.51 420.74
  Z"
/>
<path fill="#010101" d="
  M 226.90 403.63
  Q 227.67 412.17 227.29 420.76
  Q 227.22 422.27 228.51 424.23
  C 231.62 428.92 240.84 427.36 240.89 421.25
  Q 240.98 409.44 241.05 397.89
  A 2.05 2.04 1.9 0 1 243.22 395.86
  C 245.60 395.99 250.23 395.44 250.11 399.22
  Q 249.79 409.85 249.66 420.48
  C 249.42 439.21 219.42 439.89 218.72 421.25
  Q 218.28 409.27 218.77 397.21
  A 0.83 0.83 0.0 0 1 219.58 396.41
  L 225.18 396.29
  A 1.87 1.87 0.0 0 1 227.05 398.48
  Q 226.64 400.80 226.90 403.63
  Z"
/>
<path fill="#010101" d="
  M 279.72 427.43
  A 1.78 1.77 -14.3 0 0 278.07 426.45
  L 267.82 426.79
  A 2.91 2.91 0.0 0 0 265.27 428.49
  C 262.75 433.98 261.05 436.04 254.48 434.36
  A 1.35 1.34 -72.0 0 1 253.57 432.57
  Q 259.64 417.24 265.50 401.55
  C 267.12 397.21 268.45 395.45 273.22 395.86
  Q 276.16 396.12 277.86 396.68
  A 1.36 1.35 -0.3 0 1 278.71 397.51
  L 291.22 432.35
  A 1.74 1.74 0.0 0 1 290.09 434.60
  Q 286.74 435.62 283.53 434.34
  A 1.22 1.21 -2.6 0 1 282.88 433.75
  L 279.72 427.43
  Z
  M 277.42 418.51
  A 0.79 0.79 0.0 0 0 277.70 417.56
  L 273.35 407.15
  A 0.79 0.79 0.0 0 0 271.89 407.16
  L 267.47 417.99
  A 0.79 0.79 0.0 0 0 268.16 419.08
  L 275.76 419.47
  A 0.79 0.79 0.0 0 0 276.25 419.33
  L 277.42 418.51
  Z"
/>
<path fill="#010101" d="
  M 484.39 403.02
  C 481.12 402.65 474.88 403.12 475.93 397.88
  Q 476.03 397.38 476.47 397.12
  Q 478.12 396.15 480.25 396.18
  Q 490.87 396.34 501.47 395.85
  C 506.11 395.64 506.48 399.59 504.13 402.36
  A 1.10 1.10 0.0 0 1 503.29 402.75
  L 496.65 402.80
  A 2.03 2.02 -0.6 0 0 494.63 404.85
  L 494.91 432.92
  A 1.47 1.47 0.0 0 1 493.65 434.39
  Q 489.82 434.94 486.13 434.00
  A 0.72 0.71 9.3 0 1 485.59 433.26
  Q 486.50 419.77 485.87 406.37
  Q 485.86 406.25 486.03 404.71
  Q 486.19 403.22 484.39 403.02
  Z"
/>
<path fill="#010101" d="
  M 511.04 397.58
  A 1.82 1.82 0.0 0 1 512.88 395.77
  L 526.52 395.87
  A 19.02 18.17 0.4 0 1 545.41 414.17
  L 545.39 416.71
  A 19.02 18.17 0.4 0 1 526.24 434.75
  L 512.60 434.65
  A 1.82 1.82 0.0 0 1 510.80 432.82
  L 511.04 397.58
  Z
  M 519.46 404.42
  L 519.38 426.46
  A 2.19 2.19 0.0 0 0 521.56 428.66
  L 523.86 428.67
  A 11.77 11.21 0.2 0 0 535.67 417.50
  L 535.69 413.50
  A 11.77 11.21 0.2 0 0 523.96 402.25
  L 521.66 402.24
  A 2.19 2.19 0.0 0 0 519.46 404.42
  Z"
/>
<path fill="#010101" d="
  M 165.73 422.31
  L 166.45 431.80
  A 2.46 2.45 -8.5 0 1 164.53 434.39
  Q 161.99 434.94 158.75 434.66
  Q 156.77 434.49 156.87 432.24
  Q 157.68 414.93 157.14 397.86
  A 1.35 1.34 85.8 0 1 158.33 396.48
  Q 166.50 395.60 175.00 396.32
  C 178.13 396.59 180.76 397.49 182.76 400.05
  Q 186.68 405.05 185.29 411.00
  C 183.14 420.16 174.61 420.48 166.47 421.42
  A 0.84 0.83 -5.4 0 0 165.73 422.31
  Z
  M 165.66 404.71
  L 165.66 412.31
  A 2.41 2.41 0.0 0 0 168.07 414.72
  L 169.65 414.72
  A 6.87 5.69 -0.0 0 0 176.52 409.03
  L 176.52 407.99
  A 6.87 5.69 0.0 0 0 169.65 402.30
  L 168.07 402.30
  A 2.41 2.41 0.0 0 0 165.66 404.71
  Z"
/>
<path fill="#010101" d="
  M 305.81 418.77
  A 0.97 0.96 -78.7 0 0 304.42 419.70
  L 305.35 433.22
  A 1.35 1.35 0.0 0 1 304.25 434.64
  Q 300.30 435.39 296.77 433.64
  A 0.92 0.92 0.0 0 1 296.25 432.81
  L 296.25 397.60
  A 1.56 1.56 0.0 0 1 297.82 396.04
  L 303.40 396.05
  A 2.11 2.11 0.0 0 1 305.47 398.54
  Q 304.33 404.76 304.82 411.07
  A 0.73 0.72 -11.3 0 0 305.77 411.70
  C 308.97 410.64 312.58 402.72 314.34 399.78
  C 316.60 396.01 320.59 395.03 324.55 396.32
  A 1.84 1.84 0.0 0 1 325.44 399.19
  L 314.52 413.38
  A 2.23 2.21 -45.4 0 0 314.53 416.10
  L 327.01 432.11
  Q 328.30 433.76 326.27 434.30
  Q 321.21 435.65 317.79 433.96
  C 312.22 431.21 311.76 421.75 305.81 418.77
  Z"
/>
<path fill="#010101" d="
  M 374.06 405.29
  C 366.15 404.85 359.77 401.22 355.16 410.57
  C 351.28 418.43 356.87 427.28 365.42 427.15
  C 367.94 427.11 370.99 425.44 374.06 425.16
  A 0.66 0.65 75.5 0 1 374.73 425.56
  C 376.79 430.43 373.67 434.23 368.91 434.55
  C 360.46 435.13 354.32 434.95 348.90 428.39
  Q 345.58 424.38 345.10 418.82
  C 343.97 405.82 352.17 396.06 365.50 396.04
  C 369.40 396.03 371.58 395.85 374.38 397.47
  A 0.80 0.78 -76.0 0 1 374.77 398.14
  L 374.89 404.50
  A 0.78 0.78 0.0 0 1 374.06 405.29
  Z"
/>
<path fill="#010101" d="
  M 394.6972 434.8067
  A 19.61 18.98 99.4 0 1 379.1749 412.3601
  A 19.61 18.98 99.4 0 1 401.1028 396.1133
  A 19.61 18.98 99.4 0 1 416.6251 418.5599
  A 19.61 18.98 99.4 0 1 394.6972 434.8067
  Z
  M 407.2002 412.5267
  A 8.45 8.45 0.0 0 0 398.6040 404.2255
  L 396.7443 404.2579
  A 8.45 8.45 0.0 0 0 388.4431 412.8541
  L 388.5398 418.3933
  A 8.45 8.45 0.0 0 0 397.1360 426.6945
  L 398.9957 426.6621
  A 8.45 8.45 0.0 0 0 407.2969 418.0659
  L 407.2002 412.5267
  Z"
/>
<path fill="#010101" d="
  M 460.16 427.59
  Q 460.48 428.05 461.26 428.09
  Q 466.99 428.35 472.71 428.87
  C 475.46 429.12 475.94 434.11 472.18 434.29
  Q 462.82 434.74 452.45 434.73
  Q 450.81 434.72 450.82 433.08
  L 451.06 397.43
  A 1.29 1.29 0.0 0 1 452.33 396.15
  L 457.83 396.04
  Q 459.65 396.00 459.66 397.83
  L 459.76 426.25
  A 2.49 2.18 -65.4 0 0 460.16 427.59
  Z"
/>
<path fill="#ffffff" d="
  M 165.66 404.71
  A 2.41 2.41 0.0 0 1 168.07 402.30
  L 169.65 402.30
  A 6.87 5.69 0.0 0 1 176.52 407.99
  L 176.52 409.03
  A 6.87 5.69 0.0 0 1 169.65 414.72
  L 168.07 414.72
  A 2.41 2.41 0.0 0 1 165.66 412.31
  L 165.66 404.71
  Z"
/>
<path fill="#ffffff" d="
  M 519.46 404.42
  A 2.19 2.19 0.0 0 1 521.66 402.24
  L 523.96 402.25
  A 11.77 11.21 0.2 0 1 535.69 413.50
  L 535.67 417.50
  A 11.77 11.21 0.2 0 1 523.86 428.67
  L 521.56 428.66
  A 2.19 2.19 0.0 0 1 519.38 426.46
  L 519.46 404.42
  Z"
/>
<path fill="#ffffff" d="
  M 71.99 404.57
  A 2.16 2.16 0.0 0 1 74.20 402.46
  L 76.20 402.51
  A 11.90 11.30 1.4 0 1 87.82 414.10
  L 87.74 417.46
  A 11.90 11.30 1.4 0 1 75.56 428.46
  L 73.56 428.41
  A 2.16 2.16 0.0 0 1 71.46 426.20
  L 71.99 404.57
  Z"
/>
<rect fill="#ffffff" x="-9.38" y="-11.22" transform="translate(397.87,415.46) rotate(-1.0)" width="18.76" height="22.44" rx="8.45"/>
<path fill="#ffffff" d="
  M 277.42 418.51
  L 276.25 419.33
  A 0.79 0.79 0.0 0 1 275.76 419.47
  L 268.16 419.08
  A 0.79 0.79 0.0 0 1 267.47 417.99
  L 271.89 407.16
  A 0.79 0.79 0.0 0 1 273.35 407.15
  L 277.70 417.56
  A 0.79 0.79 0.0 0 1 277.42 418.51
  Z"
/>
<ellipse fill="#010101" cx="0.00" cy="0.00" transform="translate(554.07,430.09) rotate(-3.7)" rx="5.42" ry="4.62"/>
<ellipse fill="#010101" cx="0.00" cy="0.00" transform="translate(425.23,430.06) rotate(-26.3)" rx="5.29" ry="4.49"/>
<path fill="#010101" d="
  M 442.10 427.16
  A 1.78 1.78 0.0 0 1 443.24 429.40
  L 441.78 433.94
  A 9.27 3.34 -72.1 0 1 435.75 441.74
  L 434.95 441.48
  A 9.27 3.34 -72.1 0 1 434.62 431.63
  L 436.09 427.09
  A 1.78 1.78 0.0 0 1 438.33 425.94
  L 442.10 427.16
  Z"
/>
</svg>
